<svg xmlns="http://www.w3.org/2000/svg" viewBox="0 0 512 512" width="512" height="512" data-pwa-studio-config="{&quot;id&quot;:&quot;batch-AtlasTrack&quot;,&quot;type&quot;:&quot;outline&quot;,&quot;db&quot;:&quot;Lucide&quot;,&quot;bg&quot;:&quot;#FFF1F2&quot;,&quot;shape&quot;:&quot;square&quot;,&quot;icon&quot;:&quot;dumbbell&quot;,&quot;stroke&quot;:2,&quot;strokeColor&quot;:&quot;#7209B7&quot;,&quot;emoji&quot;:null,&quot;shadow&quot;:0,&quot;size&quot;:100,&quot;bgTexture&quot;:&quot;none&quot;,&quot;bgTextureScale&quot;:20,&quot;bgTextureThickness&quot;:2,&quot;bgTextureColor&quot;:&quot;&quot;,&quot;contShadowDist&quot;:0,&quot;contShadowBlur&quot;:0,&quot;contShadowAngle&quot;:90,&quot;contOutlineStyle&quot;:&quot;none&quot;,&quot;contOutlineWidth&quot;:4,&quot;contOutlineColor&quot;:&quot;#1c1917&quot;,&quot;innerRotation&quot;:0,&quot;bgOpacity&quot;:100,&quot;contShadowEnabled&quot;:false,&quot;contSize&quot;:100,&quot;contSizeLocked&quot;:false}">
  <g >
    <g  >
    <rect width="512" height="512" rx="112" fill="#FFF1F2" fill-opacity="1" />
  </g>
    <g transform="rotate(0, 256, 256)">
    <g ><g class="lucide-dumbbell" transform="translate(112, 112) scale(12)" stroke="#7209B7" stroke-width="2" fill="none" stroke-linecap="round" stroke-linejoin="round" color="#7209B7">
  <path d="M17.596 12.768a2 2 0 1 0 2.829-2.829l-1.768-1.767a2 2 0 0 0 2.828-2.829l-2.828-2.828a2 2 0 0 0-2.829 2.828l-1.767-1.768a2 2 0 1 0-2.829 2.829z" />
  <path d="m2.5 21.5 1.4-1.4" />
  <path d="m20.1 3.9 1.4-1.4" />
  <path d="M5.343 21.485a2 2 0 1 0 2.829-2.828l1.767 1.768a2 2 0 1 0 2.829-2.829l-6.364-6.364a2 2 0 1 0-2.829 2.829l1.768 1.767a2 2 0 0 0-2.828 2.829z" />
  <path d="m9.6 14.4 4.8-4.8" />
</g></g>
  </g>
  </g>
</svg>